<svg width="193" height="193" viewBox="0 0 193 193" fill="none" xmlns="http://www.w3.org/2000/svg">
<path d="M107.255 65.0186C113.302 67.0244 120.737 72.1805 126.099 78.0886C129.497 81.8312 130.125 82.6959 132.635 87.0782C135.273 91.6838 137.53 98.4011 138.131 103.442C138.282 104.709 138.526 106.609 138.672 107.668C139.032 110.26 138.588 117.447 137.872 120.654C136.385 127.307 134.24 133.144 131.74 137.345C127.274 144.845 122.697 149.465 101.443 167.92C83.8896 183.162 80.9924 185.285 73.3904 188.476C61.7299 193.371 46.9731 193.834 35.1506 189.678C30.5546 188.062 25.4513 185.543 22.9766 183.668C22.2896 183.148 21.6465 182.718 21.5477 182.712C21.4481 182.706 19.9597 181.526 18.2403 180.09C8.93232 172.314 2.70754 161.062 0.72912 148.437C0.236054 145.291 0.590278 134.662 1.30158 131.243C2.69105 124.568 6.18705 116.898 10.2552 111.596C11.9059 109.445 12.3349 108.926 14.1897 106.848C16.2448 104.545 30.8773 91.8149 32.1026 91.2634C32.7229 90.9842 33.1079 91.002 33.6563 91.3331C34.9444 92.1122 39.4337 96.5562 43.3055 100.884C46.1234 104.033 47.0562 105.315 47.0165 105.984C46.9558 107.005 43.0547 110.877 35.6462 117.27C30.3304 121.857 29.1777 123.156 26.3757 127.723C21.7856 135.203 21.2125 146.092 25.0274 153.322C27.0503 157.156 28.0201 158.561 30.4132 161.125C34.4809 165.482 38.7096 168.067 44.3197 169.623C51.3773 171.582 57.9379 171.073 65.3882 167.988C68.1318 166.852 69.2669 166.028 76.9482 159.596C81.633 155.673 90.1321 148.328 95.8362 143.273C109.29 131.351 112.209 127.984 114.542 121.701C118.542 110.923 116.493 99.9247 108.939 91.6282C106.269 88.6956 104.249 87.2519 98.8852 84.4418C93.1224 81.4219 91.3368 78.9991 91.5547 74.492C91.658 72.3577 91.8536 71.7209 93.0031 69.779C94.57 67.129 96.0095 65.8307 98.5808 64.7481C100.867 63.7865 103.817 63.8787 107.255 65.0186Z" fill="#2F81F7"/>
<path d="M85.7447 127.981C79.6982 125.976 72.2633 120.819 66.9005 114.911C63.5035 111.169 62.8748 110.304 60.365 105.922C57.7272 101.316 55.4704 94.5988 54.8687 89.5576C54.7178 88.2915 54.474 86.3906 54.3278 85.3321C53.9681 82.7402 54.4117 75.5533 55.1283 72.3455C56.6149 65.6926 58.7595 59.8555 61.26 55.6552C65.7257 48.1546 70.3027 43.5352 91.5569 25.0798C109.11 9.83779 112.008 7.71474 119.61 4.52441C131.27 -0.371089 146.027 -0.834315 157.849 3.32164C162.445 4.93751 167.549 7.4566 170.023 9.33214C170.71 9.85216 171.353 10.2824 171.452 10.2882C171.552 10.2941 173.04 11.4738 174.76 12.9103C184.068 20.6864 190.292 31.938 192.271 44.563C192.764 47.7091 192.41 58.3383 191.698 61.7566C190.309 68.4321 186.813 76.1023 182.745 81.4042C181.094 83.555 180.665 84.074 178.81 86.1515C176.755 88.4549 162.123 101.185 160.897 101.737C160.277 102.016 159.892 101.998 159.344 101.667C158.056 100.888 153.566 96.4438 149.694 92.1163C146.877 88.9668 145.944 87.6849 145.984 87.0164C146.044 85.9955 149.945 82.123 157.354 75.7304C162.67 71.1432 163.822 69.8442 166.624 65.277C171.214 57.7971 171.787 46.908 167.973 39.6785C165.95 35.8438 164.98 34.4387 162.587 31.8754C158.519 27.5181 154.29 24.9331 148.68 23.377C141.623 21.4179 135.062 21.9272 127.612 25.0119C124.868 26.1476 123.733 26.9723 116.052 33.4038C111.367 37.3271 102.868 44.6716 97.1638 49.7267C83.7097 61.6494 80.7907 65.0157 78.4583 71.2988C74.4578 82.0775 76.5066 93.0753 84.061 101.372C86.7311 104.304 88.7505 105.748 94.1148 108.558C99.8776 111.578 101.663 114.001 101.445 118.508C101.342 120.642 101.146 121.279 99.9969 123.221C98.43 125.871 96.9905 127.169 94.4192 128.252C92.1334 129.213 89.183 129.121 85.7447 127.981Z" fill="#33BD7F"/>
<path d="M107.255 65.0186C113.302 67.0244 120.737 72.1805 126.099 78.0886C129.497 81.8312 130.125 82.6959 132.635 87.0782C135.273 91.6838 137.53 98.4011 138.131 103.442C138.282 104.709 138.526 106.609 138.672 107.668C139.032 110.26 138.588 117.447 137.872 120.654C136.385 127.307 134.24 133.144 131.74 137.345C127.274 144.845 122.697 149.465 101.443 167.92C83.8896 183.162 80.9924 185.285 73.3904 188.476C61.7299 193.371 46.9731 193.834 35.1506 189.678C30.5546 188.062 25.4513 185.543 22.9766 183.668C22.2896 183.148 21.6465 182.718 21.5477 182.712C21.4481 182.706 19.9597 181.526 18.2403 180.09C8.93232 172.314 2.70754 161.062 0.72912 148.437C0.236054 145.291 0.590278 134.662 1.30158 131.243C2.69105 124.568 6.18705 116.898 10.2552 111.596C11.9059 109.445 12.3349 108.926 14.1897 106.848C16.2448 104.545 30.8773 91.8149 32.1026 91.2634C32.7229 90.9842 33.1079 91.002 33.6563 91.3331C34.9444 92.1122 39.4337 96.5562 43.3055 100.884C46.1234 104.033 47.0562 105.315 47.0165 105.984C46.9558 107.005 43.0547 110.877 35.6462 117.27C30.3304 121.857 29.1777 123.156 26.3757 127.723C21.7856 135.203 21.2125 146.092 25.0274 153.322C27.0503 157.156 28.0201 158.561 30.4132 161.125C34.4809 165.482 38.7096 168.067 44.3197 169.623C51.3773 171.582 57.9379 171.073 65.3882 167.988C68.1318 166.852 69.2669 166.028 76.9482 159.596C81.633 155.673 90.1321 148.328 95.8362 143.273C109.29 131.351 112.209 127.984 114.542 121.701C118.542 110.923 116.493 99.9247 108.939 91.6282C106.269 88.6956 104.249 87.2519 98.8852 84.4418C93.1224 81.4219 91.3368 78.9991 91.5547 74.492C91.658 72.3577 91.8536 71.7209 93.0031 69.779C94.57 67.129 96.0095 65.8307 98.5808 64.7481C100.867 63.7865 103.817 63.8787 107.255 65.0186Z" stroke="#33BD7F" stroke-linejoin="round"/>
<path d="M85.7447 127.981C79.6982 125.976 72.2633 120.819 66.9005 114.911C63.5035 111.169 62.8748 110.304 60.365 105.922C57.7272 101.316 55.4704 94.5988 54.8687 89.5576C54.7178 88.2915 54.474 86.3906 54.3278 85.3321C53.9681 82.7402 54.4117 75.5533 55.1283 72.3455C56.6149 65.6926 58.7595 59.8555 61.26 55.6552C65.7257 48.1546 70.3027 43.5352 91.5569 25.0798C109.11 9.83779 112.008 7.71474 119.61 4.52441C131.27 -0.371089 146.027 -0.834315 157.849 3.32164C162.445 4.93751 167.549 7.4566 170.023 9.33214C170.71 9.85216 171.353 10.2824 171.452 10.2882C171.552 10.2941 173.04 11.4738 174.76 12.9103C184.068 20.6864 190.292 31.938 192.271 44.563C192.764 47.7091 192.41 58.3383 191.698 61.7566C190.309 68.4321 186.813 76.1023 182.745 81.4042C181.094 83.555 180.665 84.074 178.81 86.1515C176.755 88.4549 162.123 101.185 160.897 101.737C160.277 102.016 159.892 101.998 159.344 101.667C158.056 100.888 153.566 96.4438 149.694 92.1163C146.877 88.9668 145.944 87.6849 145.984 87.0164C146.044 85.9955 149.945 82.123 157.354 75.7304C162.67 71.1432 163.822 69.8442 166.624 65.277C171.214 57.7971 171.787 46.908 167.973 39.6785C165.95 35.8438 164.98 34.4387 162.587 31.8754C158.519 27.5181 154.29 24.9331 148.68 23.377C141.623 21.4179 135.062 21.9272 127.612 25.0119C124.868 26.1476 123.733 26.9723 116.052 33.4038C111.367 37.3271 102.868 44.6716 97.1638 49.7267C83.7097 61.6494 80.7907 65.0157 78.4583 71.2988C74.4578 82.0775 76.5066 93.0753 84.061 101.372C86.7311 104.304 88.7505 105.748 94.1148 108.558C99.8776 111.578 101.663 114.001 101.445 118.508C101.342 120.642 101.146 121.279 99.9969 123.221C98.43 125.871 96.9905 127.169 94.4192 128.252C92.1334 129.213 89.183 129.121 85.7447 127.981Z" stroke="#33BD7F" stroke-linejoin="round"/>
<path d="M96.8642 59.3094C96.0144 59.5162 94.3963 60.3309 94.0774 60.552C93.7661 60.7897 92.4778 62.0871 92.0005 62.8443C91.393 63.8079 89.554 67.2327 89.9005 71.2879C90.5518 82.6914 128.245 165.701 129.153 166.244C129.842 167.031 131.711 168.544 134.609 164.218L140.825 152.919C141.038 152.499 141.263 151.517 142.533 152.659C143.803 153.801 145.212 155.473 146.534 157.432L160.167 177.642C161.489 179.602 162.827 181.17 164.097 182.312C165.367 183.454 165.836 183.48 166.703 183.382C168.243 183.207 173.869 179.515 174.188 179.305C174.494 179.06 179.754 174.841 180.438 173.399C180.824 172.587 180.96 172.121 180.361 170.492C179.761 168.862 178.8 167.021 177.478 165.061L163.844 144.851C162.522 142.891 161.491 140.946 160.891 139.316C160.292 137.687 161.257 137.803 161.711 137.739L174.066 135.541C178.974 134.193 178.242 131.853 177.766 130.912C177.585 129.841 115.327 64.6844 105.226 60.149C101.674 58.4241 97.9443 59.0464 96.8642 59.3094Z" fill="#2F81F7"/>
<path d="M94.0639 60.5616C94.3473 60.3556 96.0016 59.5194 96.8642 59.3094C97.9443 59.0464 101.674 58.4241 105.226 60.149C115.327 64.6844 177.585 129.841 177.766 130.912C178.242 131.853 178.974 134.193 174.066 135.541L161.711 137.739C161.257 137.803 160.292 137.687 160.891 139.316C161.491 140.946 162.522 142.891 163.844 144.851L177.478 165.061C178.8 167.021 179.761 168.862 180.361 170.492C180.96 172.121 180.824 172.587 180.438 173.399C179.733 174.884 174.174 179.316 174.174 179.316M94.0919 60.5412C93.8085 60.7471 92.4856 62.0747 92.0005 62.8443C91.393 63.8079 89.554 67.2327 89.9005 71.2879C90.5518 82.6914 128.245 165.701 129.153 166.244C129.842 167.031 131.711 168.544 134.609 164.218L140.825 152.919C141.038 152.499 141.263 151.517 142.533 152.659C143.803 153.801 145.212 155.473 146.534 157.432L160.167 177.642C161.489 179.602 162.827 181.17 164.097 182.312C165.367 183.454 165.836 183.48 166.703 183.382C168.288 183.202 174.202 179.296 174.202 179.296" stroke="#2F81F7" stroke-width="2" stroke-linecap="round"/>
</svg>
