<svg width="16" height="16" viewBox="0 0 16 16" fill="none"
    xmlns="http://www.w3.org/2000/svg">
    <g clip-path="url(#clip0_2152_14)">
        <path
            d="M13.7656 2.76562L12.1406 4.39062L12.9688 5.21875C13.2625 5.5125 13.2625 5.9875 12.9688 6.27812L12.425 6.82188C12.7938 7.6375 13 8.54375 13 9.49687C13 13.0875 10.0906 15.9969 6.5 15.9969C2.90937 15.9969 0 13.0906 0 9.5C0 5.90937 2.90937 3 6.5 3C7.45312 3 8.35938 3.20625 9.175 3.575L9.71875 3.03125C10.0125 2.7375 10.4875 2.7375 10.7781 3.03125L11.6062 3.85938L13.2312 2.23438L13.7656 2.76562ZM15.625 1.875H14.875C14.6688 1.875 14.5 2.04375 14.5 2.25C14.5 2.45625 14.6688 2.625 14.875 2.625H15.625C15.8312 2.625 16 2.45625 16 2.25C16 2.04375 15.8312 1.875 15.625 1.875ZM13.75 0C13.5438 0 13.375 0.16875 13.375 0.375V1.125C13.375 1.33125 13.5438 1.5 13.75 1.5C13.9562 1.5 14.125 1.33125 14.125 1.125V0.375C14.125 0.16875 13.9562 0 13.75 0ZM14.8094 1.71875L15.3406 1.1875C15.4875 1.04063 15.4875 0.803125 15.3406 0.65625C15.1937 0.509375 14.9562 0.509375 14.8094 0.65625L14.2781 1.1875C14.1312 1.33437 14.1312 1.57188 14.2781 1.71875C14.4281 1.86562 14.6656 1.86562 14.8094 1.71875ZM12.6906 1.71875C12.8375 1.86562 13.075 1.86562 13.2219 1.71875C13.3688 1.57188 13.3688 1.33437 13.2219 1.1875L12.6906 0.65625C12.5438 0.509375 12.3063 0.509375 12.1594 0.65625C12.0125 0.803125 12.0125 1.04063 12.1594 1.1875L12.6906 1.71875ZM14.8094 2.78125C14.6625 2.63438 14.425 2.63438 14.2781 2.78125C14.1312 2.92812 14.1312 3.16563 14.2781 3.3125L14.8094 3.84375C14.9562 3.99062 15.1937 3.99062 15.3406 3.84375C15.4875 3.69688 15.4875 3.45937 15.3406 3.3125L14.8094 2.78125ZM3.5 8.5C3.5 7.39688 4.39688 6.5 5.5 6.5C5.775 6.5 6 6.275 6 6C6 5.725 5.775 5.5 5.5 5.5C3.84687 5.5 2.5 6.84687 2.5 8.5C2.5 8.775 2.725 9 3 9C3.275 9 3.5 8.775 3.5 8.5Z"
            fill="currentColor" />
    </g>
    <defs>
        <clipPath id="clip0_2152_14">
            <rect width="16" height="16" fill="white" />
        </clipPath>
    </defs>
</svg>