<svg width="20" height="20" viewBox="0 0 20 20" fill="none" xmlns="http://www.w3.org/2000/svg">
<path d="M9.98145 12.25V16.875" stroke="#4F4F4F" stroke-linecap="round" stroke-linejoin="round"/>
<path fill-rule="evenodd" clip-rule="evenodd" d="M11.982 3.25H12.982C12.9822 3.55173 12.914 3.84959 12.7826 4.1212C12.6512 4.39282 12.46 4.63113 12.2233 4.81825L12.8783 9.07475C13.9577 9.82381 14.7051 10.9618 14.9637 12.25H5C5.25849 10.9618 6.00606 9.82377 7.08575 9.075L7.74075 4.81825C7.50404 4.63113 7.31281 4.39282 7.1814 4.1212C7.04998 3.84959 6.98181 3.55173 6.982 3.25H11.982Z" fill="#EB5757"/>
<path d="M12.9818 3.25H13.4818C13.4818 3.11739 13.4291 2.99021 13.3354 2.89645C13.2416 2.80268 13.1144 2.75 12.9818 2.75V3.25ZM12.223 4.81825L11.9125 4.4265C11.8434 4.48131 11.7899 4.55346 11.7576 4.63561C11.7254 4.71777 11.7154 4.807 11.7288 4.89425L12.223 4.81825ZM12.878 9.07475L12.3835 9.15075C12.3938 9.21787 12.4177 9.28219 12.4537 9.33979C12.4897 9.39738 12.537 9.44705 12.5928 9.48575L12.878 9.07475ZM14.9638 12.25V12.75C15.0378 12.75 15.1109 12.7335 15.1777 12.7018C15.2446 12.6701 15.3036 12.624 15.3505 12.5667C15.3974 12.5095 15.4309 12.4425 15.4488 12.3707C15.4667 12.2989 15.4684 12.224 15.4538 12.1515L14.9638 12.25ZM4.9998 12.25L4.5098 12.1515C4.49522 12.224 4.49693 12.2989 4.5148 12.3707C4.53266 12.4425 4.56625 12.5095 4.61312 12.5667C4.66 12.624 4.719 12.6701 4.78587 12.7018C4.85273 12.7335 4.9258 12.75 4.9998 12.75V12.25ZM7.08555 9.07475L7.37055 9.48575C7.42635 9.44705 7.47368 9.39738 7.50965 9.33979C7.54563 9.28219 7.5695 9.21787 7.5798 9.15075L7.08555 9.07475ZM7.74055 4.81825L8.23455 4.89425C8.24796 4.80703 8.23805 4.71781 8.20582 4.63565C8.17359 4.5535 8.12019 4.48134 8.05105 4.4265L7.74055 4.81825ZM6.9818 3.25V2.75C6.84919 2.75 6.72201 2.80268 6.62824 2.89645C6.53448 2.99021 6.4818 3.11739 6.4818 3.25H6.9818ZM12.9818 2.75H11.9818V3.75H12.9818V2.75ZM12.5335 5.21C12.8293 4.97608 13.0683 4.67823 13.2325 4.33878C13.3967 3.99932 13.482 3.62709 13.4818 3.25H12.4818C12.482 3.47638 12.4309 3.69985 12.3323 3.90363C12.2337 4.10741 12.0902 4.28618 11.9125 4.4265L12.5335 5.21ZM11.7288 4.89425L12.3835 9.15075L13.372 8.99875L12.717 4.74225L11.7288 4.89425ZM12.5928 9.48575C13.315 9.98678 13.8779 10.6847 14.2143 11.4967L15.1383 11.114C14.7284 10.1247 14.0427 9.27437 13.1628 8.664L12.5928 9.48575ZM14.2143 11.4967C14.3282 11.7716 14.415 12.0568 14.4735 12.3485L15.4538 12.1515C15.3825 11.7962 15.277 11.4488 15.1383 11.114L14.2143 11.4967ZM14.9638 11.75H4.9998V12.75H14.9638V11.75ZM5.4898 12.3485C5.54832 12.0568 5.63515 11.7716 5.74905 11.4967L4.82505 11.1143C4.68633 11.449 4.58058 11.7965 4.5093 12.1517L5.4898 12.3485ZM5.74905 11.4967C6.08544 10.6848 6.64847 9.98675 7.37055 9.48575L6.8003 8.664C5.92055 9.27434 5.23488 10.1251 4.82505 11.1143L5.74905 11.4967ZM7.5798 9.15075L8.23455 4.89425L7.24605 4.74225L6.59105 8.99875L7.5798 9.15075ZM6.4818 3.25C6.4816 3.62707 6.56679 3.99929 6.73098 4.33874C6.89516 4.67819 7.13407 4.97606 7.4298 5.21L8.05105 4.4265C7.87341 4.28618 7.7299 4.10741 7.6313 3.90363C7.5327 3.69985 7.48159 3.47638 7.4818 3.25H6.4818ZM7.9818 2.75H6.9818V3.75H7.9818V2.75ZM7.9818 3.75H11.9818V2.75H7.9818V3.75Z" fill="#EB5757"/>
</svg>
